<svg width="298" height="320" viewBox="0 0 298 320" fill="none" xmlns="http://www.w3.org/2000/svg">
<path d="M0.579611 314.037C-1.70584 333.659 49.2904 292.921 81.475 292.058C81.475 292.058 82.3783 292.106 82.4976 291.49C82.6168 290.873 81.7052 290.711 81.7052 290.711C60.7602 287.1 39.3933 295.416 21.3136 302.764C80.378 240.481 167.304 252.569 279.095 256.789C302.171 257.66 299.354 245.796 291.485 237.797C270.241 220.678 236.563 212.082 210.48 200.493C177.891 186.857 137.6 174.474 107.218 157.75C96.9649 152.105 97.3454 145.793 111.62 145.604C138.703 145.228 171.611 148.301 198.77 149.47C214.187 150.226 229.978 151.806 245.631 150.841C257.142 150.709 262.797 142.028 252.888 135.88C223.036 119.728 118.967 99.3494 102.314 68.7126C80.7937 29.048 164.117 0.651093 205.879 2.46415C206.147 2.47546 206.407 2.40332 206.603 2.26328C206.799 2.12323 206.915 1.92657 206.926 1.71581C206.942 1.41625 206.806 1.12087 206.549 0.894638C206.291 0.66844 205.933 0.529977 205.552 0.509651C151.94 -4.23634 53.4163 36.5563 100.342 81.6568C125.331 105.648 188.604 117.718 228.593 136.009C230.755 136.997 237.393 140.319 227.375 139.433C184.77 135.626 141.867 130.954 98.9553 132.354C59.7427 134.494 73.9442 157.195 98.0297 169.04C141.317 193.16 200.671 212.633 246.36 234.321C253.625 237.767 254.648 240.688 244.832 240.322C149.486 236.721 61.0015 239.808 18.3947 296.842C21.0609 281.126 17.3546 262.498 1.95366 250.936C1.95366 250.936 1.37914 250.384 0.745688 250.667C0.112201 250.951 0.452449 251.581 0.452449 251.581C8.00678 273.009 2.39262 298.411 0.579611 314.037ZM244.702 144.55C244.807 144.748 244.81 144.681 244.702 144.55V144.55ZM91.7189 148.29C91.554 148.417 91.5564 148.372 91.7189 148.29V148.29Z" fill="#DF6437"/>
</svg>
